<svg version="1.1" xmlns="http://www.w3.org/2000/svg" xmlns:xlink="http://www.w3.org/1999/xlink" width="1148.07763671875" height="661"><defs/><g><g transform="translate(-38,-22) scale(1,1)"><rect fill="#C0C0C0" stroke="none" x="63" y="407" width="134.47412109375" height="57" opacity="0.2"/></g><g transform="translate(-38,-22) scale(1,1)"><rect fill="#ffffff" stroke="none" x="56" y="400" width="134.47412109375" height="57"/></g><g transform="translate(-38,-22) scale(1,1)"><path fill="none" stroke="#000000" d="M 56 400 L 190.47412109375 400 L 190.47412109375 457 L 56 457 L 56 400 Z Z" stroke-miterlimit="10"/></g><g transform="translate(-38,-22) scale(1,1)"><path fill="none" stroke="#000000" d="M 56 425 L 190.47412109375 425" stroke-miterlimit="10"/></g><g transform="translate(-38,-22) scale(1,1)"><path fill="none" stroke="#000000" d="M 56 435 L 190.47412109375 435" stroke-miterlimit="10"/></g><g transform="translate(-38,-22) scale(1,1)"><g><path fill="none" stroke="none"/><text fill="#000000" stroke="none" font-family="Arial" font-size="13px" font-style="normal" font-weight="bold" text-decoration="none" x="65.181396484375" y="419.5">VideoPreprocessing</text></g></g><g transform="translate(-38,-22) scale(1,1)"><g><path fill="none" stroke="none"/><text fill="#000000" stroke="none" font-family="Arial" font-size="13px" font-style="normal" font-weight="normal" text-decoration="none" x="61" y="452.5">+main()</text></g></g><g transform="translate(-38,-22) scale(1,1)"><rect fill="#C0C0C0" stroke="none" x="343" y="407" width="272.14208984375" height="72" opacity="0.2"/></g><g transform="translate(-38,-22) scale(1,1)"><rect fill="#ffffff" stroke="none" x="336" y="400" width="272.14208984375" height="72"/></g><g transform="translate(-38,-22) scale(1,1)"><path fill="none" stroke="#000000" d="M 336 400 L 608.14208984375 400 L 608.14208984375 472 L 336 472 L 336 400 Z Z" stroke-miterlimit="10"/></g><g transform="translate(-38,-22) scale(1,1)"><path fill="none" stroke="#000000" d="M 336 425 L 608.14208984375 425" stroke-miterlimit="10"/></g><g transform="translate(-38,-22) scale(1,1)"><path fill="none" stroke="#000000" d="M 336 435 L 608.14208984375 435" stroke-miterlimit="10"/></g><g transform="translate(-38,-22) scale(1,1)"><g><path fill="none" stroke="none"/><text fill="#000000" stroke="none" font-family="Arial" font-size="13px" font-style="normal" font-weight="bold" text-decoration="none" x="446.781982421875" y="419.5">Analyzer</text></g></g><g transform="translate(-38,-22) scale(1,1)"><g><path fill="none" stroke="none"/><text fill="#000000" stroke="none" font-family="Arial" font-size="13px" font-style="normal" font-weight="normal" text-decoration="none" x="341" y="452.5">+calibrate(videoFrame: VideoFrame)</text></g></g><g transform="translate(-38,-22) scale(1,1)"><g><path fill="none" stroke="none"/><text fill="#000000" stroke="none" font-family="Arial" font-size="13px" font-style="normal" font-weight="normal" text-decoration="none" x="341" y="467.5">+add_video_frame(videoFrame: VideoFrame)</text></g></g><g transform="translate(-38,-22) scale(1,1)"><rect fill="#C0C0C0" stroke="none" x="847" y="207" width="205.193359375" height="57" opacity="0.2"/></g><g transform="translate(-38,-22) scale(1,1)"><rect fill="#ffffff" stroke="none" x="840" y="200" width="205.193359375" height="57"/></g><g transform="translate(-38,-22) scale(1,1)"><path fill="none" stroke="#000000" d="M 840 200 L 1045.193359375 200 L 1045.193359375 257 L 840 257 L 840 200 Z Z" stroke-miterlimit="10"/></g><g transform="translate(-38,-22) scale(1,1)"><path fill="none" stroke="#000000" d="M 840 225 L 1045.193359375 225" stroke-miterlimit="10"/></g><g transform="translate(-38,-22) scale(1,1)"><path fill="none" stroke="#000000" d="M 840 235 L 1045.193359375 235" stroke-miterlimit="10"/></g><g transform="translate(-38,-22) scale(1,1)"><g><path fill="none" stroke="none"/><text fill="#000000" stroke="none" font-family="Arial" font-size="13px" font-style="normal" font-weight="bold" text-decoration="none" x="897.791748046875" y="219.5">PeopleDetector</text></g></g><g transform="translate(-38,-22) scale(1,1)"><g><path fill="none" stroke="none"/><text fill="#000000" stroke="none" font-family="Arial" font-size="13px" font-style="normal" font-weight="normal" text-decoration="none" x="845" y="252.5">+detect(frame): BoundingBox[0..*]</text></g></g><g transform="translate(-38,-22) scale(1,1)"><rect fill="#C0C0C0" stroke="none" x="759" y="399" width="355.94384765625" height="72" opacity="0.2"/></g><g transform="translate(-38,-22) scale(1,1)"><rect fill="#ffffff" stroke="none" x="752" y="392" width="355.94384765625" height="72"/></g><g transform="translate(-38,-22) scale(1,1)"><path fill="none" stroke="#000000" d="M 752 392 L 1107.94384765625 392 L 1107.94384765625 464 L 752 464 L 752 392 Z Z" stroke-miterlimit="10"/></g><g transform="translate(-38,-22) scale(1,1)"><path fill="none" stroke="#000000" d="M 752 417 L 1107.94384765625 417" stroke-miterlimit="10"/></g><g transform="translate(-38,-22) scale(1,1)"><path fill="none" stroke="#000000" d="M 752 427 L 1107.94384765625 427" stroke-miterlimit="10"/></g><g transform="translate(-38,-22) scale(1,1)"><g><path fill="none" stroke="none"/><text fill="#000000" stroke="none" font-family="Arial" font-size="13px" font-style="normal" font-weight="bold" text-decoration="none" x="908.18359375" y="411.5">Tracker</text></g></g><g transform="translate(-38,-22) scale(1,1)"><g><path fill="none" stroke="none"/><text fill="#000000" stroke="none" font-family="Arial" font-size="13px" font-style="normal" font-weight="normal" text-decoration="none" x="757" y="444.5">+updateTrajectories(current: VideoFrame, last: VideoFrame)</text></g></g><g transform="translate(-38,-22) scale(1,1)"><g><path fill="none" stroke="none"/><text fill="#000000" stroke="none" font-family="Arial" font-size="13px" font-style="normal" font-weight="normal" text-decoration="none" x="757" y="459.5">+groupTrajectories()</text></g></g><g transform="translate(-38,-22) scale(1,1)"><rect fill="#C0C0C0" stroke="none" x="703" y="167" width="72.2353515625" height="72" opacity="0.2"/></g><g transform="translate(-38,-22) scale(1,1)"><rect fill="#ffffff" stroke="none" x="696" y="160" width="72.2353515625" height="72"/></g><g transform="translate(-38,-22) scale(1,1)"><path fill="none" stroke="#000000" d="M 696 160 L 768.2353515625 160 L 768.2353515625 232 L 696 232 L 696 160 Z Z" stroke-miterlimit="10"/></g><g transform="translate(-38,-22) scale(1,1)"><path fill="none" stroke="#000000" d="M 696 185 L 768.2353515625 185" stroke-miterlimit="10"/></g><g transform="translate(-38,-22) scale(1,1)"><path fill="none" stroke="#000000" d="M 696 208 L 768.2353515625 208" stroke-miterlimit="10"/></g><g transform="translate(-38,-22) scale(1,1)"><g><path fill="none" stroke="none"/><text fill="#000000" stroke="none" font-family="Arial" font-size="13px" font-style="normal" font-weight="bold" text-decoration="none" x="711.522705078125" y="179.5">Person</text></g></g><g transform="translate(-38,-22) scale(1,1)"><g><path fill="none" stroke="none"/><text fill="#000000" stroke="none" font-family="Arial" font-size="13px" font-style="normal" font-weight="normal" text-decoration="none" x="701" y="202.5">+id: int</text></g></g><g transform="translate(-38,-22) scale(1,1)"><rect fill="#C0C0C0" stroke="none" x="55" y="223" width="132.9189453125" height="87" opacity="0.2"/></g><g transform="translate(-38,-22) scale(1,1)"><rect fill="#ffffff" stroke="none" x="48" y="216" width="132.9189453125" height="87"/></g><g transform="translate(-38,-22) scale(1,1)"><path fill="none" stroke="#000000" d="M 48 216 L 180.9189453125 216 L 180.9189453125 303 L 48 303 L 48 216 Z Z" stroke-miterlimit="10"/></g><g transform="translate(-38,-22) scale(1,1)"><path fill="none" stroke="#000000" d="M 48 241 L 180.9189453125 241" stroke-miterlimit="10"/></g><g transform="translate(-38,-22) scale(1,1)"><path fill="none" stroke="#000000" d="M 48 294 L 180.9189453125 294" stroke-miterlimit="10"/></g><g transform="translate(-38,-22) scale(1,1)"><g><path fill="none" stroke="none"/><text fill="#000000" stroke="none" font-family="Arial" font-size="13px" font-style="normal" font-weight="bold" text-decoration="none" x="79.1728515625" y="235.5">VideoFrame</text></g></g><g transform="translate(-38,-22) scale(1,1)"><g><path fill="none" stroke="none"/><text fill="#000000" stroke="none" font-family="Arial" font-size="13px" font-style="normal" font-weight="normal" text-decoration="none" x="53" y="258.5">+pixels: numpy_array</text></g></g><g transform="translate(-38,-22) scale(1,1)"><g><path fill="none" stroke="none"/><text fill="#000000" stroke="none" font-family="Arial" font-size="13px" font-style="normal" font-weight="normal" text-decoration="none" x="53" y="273.5">+width</text><path fill="none" stroke="#000000" d="M 53 273.5 L 90.93994140625 273.5" stroke-miterlimit="10"/></g></g><g transform="translate(-38,-22) scale(1,1)"><g><path fill="none" stroke="none"/><text fill="#000000" stroke="none" font-family="Arial" font-size="13px" font-style="normal" font-weight="normal" text-decoration="none" x="53" y="288.5">+height</text><path fill="none" stroke="#000000" d="M 53 288.5 L 96.01171875 288.5" stroke-miterlimit="10"/></g></g><g transform="translate(-38,-22) scale(1,1)"><rect fill="#C0C0C0" stroke="none" x="327" y="239" width="72.2353515625" height="87" opacity="0.2"/></g><g transform="translate(-38,-22) scale(1,1)"><rect fill="#ffffff" stroke="none" x="320" y="232" width="72.2353515625" height="87"/></g><g transform="translate(-38,-22) scale(1,1)"><path fill="none" stroke="#000000" d="M 320 232 L 392.2353515625 232 L 392.2353515625 319 L 320 319 L 320 232 Z Z" stroke-miterlimit="10"/></g><g transform="translate(-38,-22) scale(1,1)"><path fill="none" stroke="#000000" d="M 320 257 L 392.2353515625 257" stroke-miterlimit="10"/></g><g transform="translate(-38,-22) scale(1,1)"><path fill="none" stroke="#000000" d="M 320 310 L 392.2353515625 310" stroke-miterlimit="10"/></g><g transform="translate(-38,-22) scale(1,1)"><g><path fill="none" stroke="none"/><text fill="#000000" stroke="none" font-family="Arial" font-size="13px" font-style="normal" font-weight="bold" text-decoration="none" x="331.301513671875" y="251.5">Violation</text></g></g><g transform="translate(-38,-22) scale(1,1)"><g><path fill="none" stroke="none"/><text fill="#000000" stroke="none" font-family="Arial" font-size="13px" font-style="normal" font-weight="normal" text-decoration="none" x="325" y="274.5">+x: int</text></g></g><g transform="translate(-38,-22) scale(1,1)"><g><path fill="none" stroke="none"/><text fill="#000000" stroke="none" font-family="Arial" font-size="13px" font-style="normal" font-weight="normal" text-decoration="none" x="325" y="289.5">+y: int</text></g></g><g transform="translate(-38,-22) scale(1,1)"><g><path fill="none" stroke="none"/><text fill="#000000" stroke="none" font-family="Arial" font-size="13px" font-style="normal" font-weight="normal" text-decoration="none" x="325" y="304.5">+time: int</text></g></g><g transform="translate(-38,-22) scale(1,1)"><rect fill="#C0C0C0" stroke="none" x="375" y="103" width="94.20458984375" height="102" opacity="0.2"/></g><g transform="translate(-38,-22) scale(1,1)"><rect fill="#ffffff" stroke="none" x="368" y="96" width="94.20458984375" height="102"/></g><g transform="translate(-38,-22) scale(1,1)"><path fill="none" stroke="#000000" d="M 368 96 L 462.20458984375 96 L 462.20458984375 198 L 368 198 L 368 96 Z Z" stroke-miterlimit="10"/></g><g transform="translate(-38,-22) scale(1,1)"><path fill="none" stroke="#000000" d="M 368 121 L 462.20458984375 121" stroke-miterlimit="10"/></g><g transform="translate(-38,-22) scale(1,1)"><path fill="none" stroke="#000000" d="M 368 189 L 462.20458984375 189" stroke-miterlimit="10"/></g><g transform="translate(-38,-22) scale(1,1)"><g><path fill="none" stroke="none"/><text fill="#000000" stroke="none" font-family="Arial" font-size="13px" font-style="normal" font-weight="bold" text-decoration="none" x="376.432373046875" y="115.5">BoundingBox</text></g></g><g transform="translate(-38,-22) scale(1,1)"><g><path fill="none" stroke="none"/><text fill="#000000" stroke="none" font-family="Arial" font-size="13px" font-style="normal" font-weight="normal" text-decoration="none" x="373" y="138.5">+left: int</text></g></g><g transform="translate(-38,-22) scale(1,1)"><g><path fill="none" stroke="none"/><text fill="#000000" stroke="none" font-family="Arial" font-size="13px" font-style="normal" font-weight="normal" text-decoration="none" x="373" y="153.5">+top: int</text></g></g><g transform="translate(-38,-22) scale(1,1)"><g><path fill="none" stroke="none"/><text fill="#000000" stroke="none" font-family="Arial" font-size="13px" font-style="normal" font-weight="normal" text-decoration="none" x="373" y="168.5">+width: int</text></g></g><g transform="translate(-38,-22) scale(1,1)"><g><path fill="none" stroke="none"/><text fill="#000000" stroke="none" font-family="Arial" font-size="13px" font-style="normal" font-weight="normal" text-decoration="none" x="373" y="183.5">+height: int</text></g></g><g transform="translate(-38,-22) scale(1,1)"><rect fill="#C0C0C0" stroke="none" x="855" y="551" width="328.07763671875" height="85" opacity="0.2"/></g><g transform="translate(-38,-22) scale(1,1)"><rect fill="#ffffff" stroke="none" x="848" y="544" width="328.07763671875" height="85"/></g><g transform="translate(-38,-22) scale(1,1)"><path fill="none" stroke="#000000" d="M 848 544 L 1176.07763671875 544 L 1176.07763671875 629 L 848 629 L 848 544 Z Z" stroke-miterlimit="10"/></g><g transform="translate(-38,-22) scale(1,1)"><path fill="none" stroke="#000000" d="M 848 569 L 1176.07763671875 569" stroke-miterlimit="10"/></g><g transform="translate(-38,-22) scale(1,1)"><path fill="none" stroke="#000000" d="M 848 592 L 1176.07763671875 592" stroke-miterlimit="10"/></g><g transform="translate(-38,-22) scale(1,1)"><g><path fill="none" stroke="none"/><text fill="#000000" stroke="none" font-family="Arial" font-size="13px" font-style="normal" font-weight="bold" text-decoration="none" x="959.651611328125" y="563.5">CalculateDistance</text></g></g><g transform="translate(-38,-22) scale(1,1)"><g><path fill="none" stroke="none"/><text fill="#000000" stroke="none" font-family="Arial" font-size="13px" font-style="normal" font-weight="normal" text-decoration="none" x="853" y="586.5">+camera_parameters</text></g></g><g transform="translate(-38,-22) scale(1,1)"><g><path fill="none" stroke="none"/><text fill="#000000" stroke="none" font-family="Arial" font-size="13px" font-style="normal" font-weight="normal" text-decoration="none" x="853" y="609.5">+UpdatePositions(activePeople: Person)</text></g></g><g transform="translate(-38,-22) scale(1,1)"><g><path fill="none" stroke="none"/><text fill="#000000" stroke="none" font-family="Arial" font-size="13px" font-style="normal" font-weight="normal" text-decoration="none" x="853" y="624.5">+Calibrate(video_frame: VideoFrame)</text></g></g><g transform="translate(-38,-22) scale(1,1)"><rect fill="#C0C0C0" stroke="none" x="359" y="623" width="315.287109375" height="57" opacity="0.2"/></g><g transform="translate(-38,-22) scale(1,1)"><rect fill="#ffffff" stroke="none" x="352" y="616" width="315.287109375" height="57"/></g><g transform="translate(-38,-22) scale(1,1)"><path fill="none" stroke="#000000" d="M 352 616 L 667.287109375 616 L 667.287109375 673 L 352 673 L 352 616 Z Z" stroke-miterlimit="10"/></g><g transform="translate(-38,-22) scale(1,1)"><path fill="none" stroke="#000000" d="M 352 641 L 667.287109375 641" stroke-miterlimit="10"/></g><g transform="translate(-38,-22) scale(1,1)"><path fill="none" stroke="#000000" d="M 352 651 L 667.287109375 651" stroke-miterlimit="10"/></g><g transform="translate(-38,-22) scale(1,1)"><g><path fill="none" stroke="none"/><text fill="#000000" stroke="none" font-family="Arial" font-size="13px" font-style="normal" font-weight="bold" text-decoration="none" x="430.269287109375" y="635.5">CalculatedistanceViolations</text></g></g><g transform="translate(-38,-22) scale(1,1)"><g><path fill="none" stroke="none"/><text fill="#000000" stroke="none" font-family="Arial" font-size="13px" font-style="normal" font-weight="normal" text-decoration="none" x="357" y="668.5">+CalculateViolations(activePeople: Person): Violation</text></g></g><g transform="translate(-38,-22) scale(1,1)"><path fill="none" stroke="#000000" d="M 445 399 L 388 320" stroke-miterlimit="10"/></g><g transform="translate(-38,-22) scale(1,1)"><path fill="none" stroke="#000000" d="M 397.36004827952195 325.77836449222593 L 388 320 L 390.53263289406294 330.704474327304" stroke-miterlimit="10"/></g><g transform="translate(-38,-22) scale(1,1)"><g><path fill="none" stroke="none"/><text fill="#000000" stroke="none" font-family="Arial" font-size="13px" font-style="normal" font-weight="normal" text-decoration="none" x="360.5" y="355.5">+violations</text></g></g><g transform="translate(-38,-22) scale(1,1)"><g><path fill="none" stroke="none"/><text fill="#000000" stroke="none" font-family="Arial" font-size="13px" font-style="normal" font-weight="normal" text-decoration="none" x="409.5" y="331.5">0..*</text></g></g><g transform="translate(-38,-22) scale(1,1)"><path fill="none" stroke="#000000" d="M 609 434 L 751 431" stroke-miterlimit="10" stroke-dasharray="3"/></g><g transform="translate(-38,-22) scale(1,1)"><path fill="none" stroke="#000000" d="M 740.9285060207171 435.4232351311307 L 751 431 L 740.7506787545645 427.0060778665746" stroke-miterlimit="10"/></g><g transform="translate(-38,-22) scale(1,1)"><path fill="none" stroke="#000000" d="M 556 399 L 874 258" stroke-miterlimit="10" stroke-dasharray="3"/></g><g transform="translate(-38,-22) scale(1,1)"><path fill="none" stroke="#000000" d="M 866.4158977159346 265.96752110413485 L 874 258 L 863.0033416437443 258.27111804770567" stroke-miterlimit="10"/></g><g transform="translate(-38,-22) scale(1,1)"><path fill="none" stroke="#000000" d="M 479 473 L 504 615" stroke-miterlimit="10" stroke-dasharray="3"/></g><g transform="translate(-38,-22) scale(1,1)"><path fill="none" stroke="#000000" d="M 498.0921397484274 605.7211429988447 L 504 615 L 506.38365466098776 604.2613692466334" stroke-miterlimit="10"/></g><g transform="translate(-38,-22) scale(1,1)"><path fill="none" stroke="#000000" d="M 605 473 L 857 543" stroke-miterlimit="10" stroke-dasharray="3"/></g><g transform="translate(-38,-22) scale(1,1)"><path fill="none" stroke="#000000" d="M 846.081429168037 544.3359681835303 L 857 543 L 848.3347323618295 536.224076685877" stroke-miterlimit="10"/></g><g transform="translate(-38,-22) scale(1,1)"><path fill="none" stroke="#000000" d="M 397 399 L 182 293" stroke-miterlimit="10"/></g><g transform="translate(-38,-22) scale(1,1)"><path fill="none" stroke="#000000" d="M 192.97651880584823 293.7183556952234 L 182 293 L 189.25361669804053 301.2695250648334" stroke-miterlimit="10"/></g><g transform="translate(-38,-22) scale(1,1)"><g><path fill="none" stroke="none"/><text fill="#000000" stroke="none" font-family="Arial" font-size="13px" font-style="normal" font-weight="normal" text-decoration="none" x="165.5" y="328.5">+video</text></g></g><g transform="translate(-38,-22) scale(1,1)"><g><path fill="none" stroke="none"/><text fill="#000000" stroke="none" font-family="Arial" font-size="13px" font-style="normal" font-weight="normal" text-decoration="none" x="196.5" y="297.5">0..*</text></g></g><g transform="translate(-38,-22) scale(1,1)"><path fill="none" stroke="#000000" d="M 191 430 L 335 433" stroke-miterlimit="10" stroke-dasharray="3"/></g><g transform="translate(-38,-22) scale(1,1)"><path fill="none" stroke="#000000" d="M 324.75185060528014 436.9969280683424 L 335 433 L 324.92720912734103 428.57971900942056" stroke-miterlimit="10"/></g><g transform="translate(-38,-22) scale(1,1)"><path fill="none" stroke="#000000" d="M 512 399 L 695 230" stroke-miterlimit="10"/></g><g transform="translate(-38,-22) scale(1,1)"><path fill="none" stroke="#000000" d="M 690.3899297731842 239.9873546299221 L 695 230 L 684.6780618959395 233.80231426580514" stroke-miterlimit="10"/></g><g transform="translate(-38,-22) scale(1,1)"><g><path fill="none" stroke="none"/><text fill="#000000" stroke="none" font-family="Arial" font-size="13px" font-style="normal" font-weight="normal" text-decoration="none" x="581.5" y="243.5">+activePeople</text></g></g><g transform="translate(-38,-22) scale(1,1)"><g><path fill="none" stroke="none"/><text fill="#000000" stroke="none" font-family="Arial" font-size="13px" font-style="normal" font-weight="normal" text-decoration="none" x="631.5" y="235.5">0..*</text></g></g><g transform="translate(-38,-22) scale(1,1)"><path fill="none" stroke="#000000" d="M 695 190 L 463 154" stroke-miterlimit="10"/></g><g transform="translate(-38,-22) scale(1,1)"><path fill="none" stroke="#000000" d="M 473.68796629521484 151.3985818343927 L 463 154 L 472.3970138700425 159.71805301883688" stroke-miterlimit="10"/></g><g transform="translate(-38,-22) scale(1,1)"><g><path fill="none" stroke="none"/><text fill="#000000" stroke="none" font-family="Arial" font-size="13px" font-style="normal" font-weight="normal" text-decoration="none" x="495.5" y="156.5">+bounding_boxes</text></g></g><g transform="translate(-38,-22) scale(1,1)"><g><path fill="none" stroke="none"/><text fill="#000000" stroke="none" font-family="Arial" font-size="13px" font-style="normal" font-weight="normal" text-decoration="none" x="476.5" y="150.5">0..*</text></g></g><g transform="translate(-38,-22) scale(1,1)"><path fill="none" stroke="#000000" d="M 732 160 L 732 140 L 798 140 L 798 196 L 768 196" stroke-miterlimit="10"/></g><g transform="translate(-38,-22) scale(1,1)"><path fill="none" stroke="#000000" d="M 778.1626748576241 191.790482243984 L 768 196 L 778.1626748576241 200.209517756016" stroke-miterlimit="10"/></g><g transform="translate(-38,-22) scale(1,1)"><g><path fill="none" stroke="none"/><text fill="#000000" stroke="none" font-family="Arial" font-size="13px" font-style="normal" font-weight="normal" text-decoration="none" x="799.5" y="188.5">+inGroupWidth</text></g></g><g transform="translate(-38,-22) scale(1,1)"><g><path fill="none" stroke="none"/><text fill="#000000" stroke="none" font-family="Arial" font-size="13px" font-style="normal" font-weight="normal" text-decoration="none" x="779.5" y="189.5">0..*</text></g></g><g transform="translate(-38,-22) scale(1,1)"><rect fill="#C0C0C0" stroke="none" x="575" y="39" width="77.61181640625" height="72" opacity="0.2"/></g><g transform="translate(-38,-22) scale(1,1)"><rect fill="#ffffff" stroke="none" x="568" y="32" width="77.61181640625" height="72"/></g><g transform="translate(-38,-22) scale(1,1)"><path fill="none" stroke="#000000" d="M 568 32 L 645.61181640625 32 L 645.61181640625 104 L 568 104 L 568 32 Z Z" stroke-miterlimit="10"/></g><g transform="translate(-38,-22) scale(1,1)"><path fill="none" stroke="#000000" d="M 568 57 L 645.61181640625 57" stroke-miterlimit="10"/></g><g transform="translate(-38,-22) scale(1,1)"><path fill="none" stroke="#000000" d="M 568 95 L 645.61181640625 95" stroke-miterlimit="10"/></g><g transform="translate(-38,-22) scale(1,1)"><g><path fill="none" stroke="none"/><text fill="#000000" stroke="none" font-family="Arial" font-size="13px" font-style="normal" font-weight="bold" text-decoration="none" x="575.00732421875" y="51.5">Coordinate</text></g></g><g transform="translate(-38,-22) scale(1,1)"><g><path fill="none" stroke="none"/><text fill="#000000" stroke="none" font-family="Arial" font-size="13px" font-style="normal" font-weight="normal" text-decoration="none" x="573" y="74.5">+x: int</text></g></g><g transform="translate(-38,-22) scale(1,1)"><g><path fill="none" stroke="none"/><text fill="#000000" stroke="none" font-family="Arial" font-size="13px" font-style="normal" font-weight="normal" text-decoration="none" x="573" y="89.5">+y: int</text></g></g><g transform="translate(-38,-22) scale(1,1)"><path fill="none" stroke="#000000" d="M 696 159 L 642 105" stroke-miterlimit="10"/></g><g transform="translate(-38,-22) scale(1,1)"><path fill="none" stroke="#000000" d="M 652.1626748576241 109.20951775601598 L 642 105 L 646.209517756016 115.16267485762415" stroke-miterlimit="10"/></g><g transform="translate(-38,-22) scale(1,1)"><g><path fill="none" stroke="none"/><text fill="#000000" stroke="none" font-family="Arial" font-size="13px" font-style="normal" font-weight="normal" text-decoration="none" x="611.5" y="139.5">+coordinates</text></g></g><g transform="translate(-38,-22) scale(1,1)"><g><path fill="none" stroke="none"/><text fill="#000000" stroke="none" font-family="Arial" font-size="13px" font-style="normal" font-weight="normal" text-decoration="none" x="656.5" y="117.5">0..*</text></g></g></g></svg>